<svg aria-hidden="true" style="position: absolute; width: 0; height: 0; overflow: hidden;" version="1.1" xmlns="http://www.w3.org/2000/svg" xmlns:xlink="http://www.w3.org/1999/xlink">
<defs>
<symbol id="icon-address" viewBox="0 0 31 32">
<path d="M30.385 13.185c-0.293-1.611-1.776-3.014-3.4-3.268-0.746-0.122-2.759-0.264-4.486-0.317 0.033 0.573 0.049 1.163 0.050 1.773v0.003c0 1.687-0.124 3.207-0.374 4.646v0.012c-0.204 1.123-0.808 2.208-1.7 3.061-0.881 0.842-1.985 1.403-3.112 1.58-1.033 0.169-3.848 0.347-5.835 0.377l-0.009 0.014c0.019 0.124 0.039 0.243 0.059 0.355 0.293 1.611 1.777 3.014 3.4 3.267 0.981 0.161 4.153 0.355 5.983 0.339l2.091 3.304c0.091 0.144 0.217 0.262 0.366 0.344s0.317 0.125 0.488 0.125 0.338-0.043 0.488-0.125c0.149-0.082 0.275-0.2 0.366-0.344l2.317-3.658c1.588-0.29 3.024-1.67 3.311-3.251 0.169-0.975 0.327-2.305 0.33-4.121s-0.166-3.142-0.335-4.116z"></path>
<path d="M20.133 7.043c-0.309-1.716-1.87-3.21-3.577-3.481-1.036-0.172-4.396-0.379-6.317-0.361-1.921-0.018-5.281 0.188-6.317 0.361-1.708 0.27-3.269 1.766-3.577 3.481-0.178 1.038-0.344 2.454-0.344 4.39s0.167 3.352 0.344 4.387c0.303 1.684 1.812 3.155 3.483 3.464l2.436 3.897c0.096 0.153 0.228 0.279 0.386 0.366s0.334 0.133 0.513 0.133 0.356-0.046 0.513-0.133c0.157-0.087 0.29-0.213 0.386-0.366l2.2-3.519c1.925 0.017 5.261-0.189 6.294-0.361 1.708-0.27 3.269-1.766 3.577-3.481 0.175-1.038 0.345-2.454 0.347-4.389s-0.17-3.35-0.347-4.388zM11.233 13.707c0.003 0.129-0.020 0.258-0.067 0.378s-0.117 0.23-0.207 0.323c-0.090 0.093-0.197 0.166-0.315 0.217s-0.245 0.077-0.374 0.077c-1.704-0.017-3.408-0.056-5.112-0.115-0.264-0.015-0.515-0.125-0.704-0.312s-0.306-0.435-0.327-0.701c-0.032-0.539 0.39-0.964 0.935-0.951 1.727 0.039 3.455 0.065 5.183 0.077 0.263 0.004 0.515 0.111 0.7 0.3s0.29 0.443 0.29 0.708h-0.002zM15.232 10.351c-3.399 0.019-6.798 0.005-10.197-0.040-0.547-0.008-1.003-0.452-1.012-0.991s0.435-0.974 0.985-0.974c3.412 0.007 6.824 0.010 10.235 0.007 0.13-0.001 0.259 0.024 0.379 0.074s0.23 0.123 0.322 0.215c0.092 0.093 0.165 0.203 0.215 0.324s0.075 0.251 0.075 0.382c-0.003 0.266-0.109 0.521-0.297 0.709s-0.44 0.295-0.705 0.297v-0.003z"></path>
</symbol>
<symbol id="icon-bonus" viewBox="0 0 31 32">
<path d="M28.49 5.76h-9.29c1.455 1.143 2.749 2.693 4.399 3.145 0.714-0.137 1.584-1.023 2.398-0.532s0.524 1.675 0.747 2.39c0.507 0.543 1.673 0.88 1.673 1.858-0.003 0.164-0.037 0.326-0.102 0.476s-0.157 0.286-0.272 0.399l2.676 2.504v-7.953c0-0.607-0.235-1.188-0.653-1.617s-0.986-0.67-1.577-0.67z"></path>
<path d="M27.126 14.457c0.013 0.452-0.072 0.9-0.246 1.304l3.84 4.079v-3.033c-0.649-0.678-2.522-2.654-3.196-3.367-0.408 0.253-0.364 0.494-0.398 1.017z"></path>
<path d="M23.715 15.845c-0.697 0.136-1.563 0.975-2.353 0.507s-0.516-1.602-0.741-2.277c-0.16-0.162-0.346-0.298-0.549-0.403-0.932-0.479-1.585-1.504-0.581-2.321l-6.692-5.59h-10.604c-0.582 0-1.14 0.23-1.552 0.638s-0.643 0.963-0.643 1.541v14.841c0 0.578 0.231 1.132 0.643 1.541s0.97 0.638 1.552 0.638h26.331c0.582 0 1.14-0.23 1.552-0.638s0.643-0.963 0.643-1.541v-1.427l-5.398-4.904c-0.538-0.055-1.141-0.545-1.607-0.605zM12.381 18.117c-0.713 1.896-3.33 3.040-3.84 3.16-0.549-0.12-3.154-1.264-3.84-3.16-0.549-1.28 0.779-2.969 1.854-2.997 0.72-0.051 1.433 0.164 2.002 0.605 0.57-0.439 1.283-0.654 2.002-0.605 1.037 0.027 2.348 1.722 1.821 2.997z"></path>
<path d="M19.905 12.498c0.355 0.397 1.282 0.727 1.567 1.252s0.163 1.425 0.373 1.94c0.507-0.162 1.294-0.704 1.9-0.682s1.363 0.559 1.946 0.66c0.111-0.503 0-1.425 0.332-1.917 0.244-0.333 0.568-0.605 0.944-0.794 0.232-0.122 0.441-0.281 0.618-0.47-0.361-0.425-1.276-0.721-1.562-1.258s-0.169-1.425-0.373-1.94c-0.519 0.162-1.288 0.704-1.905 0.682s-1.299-0.492-1.929-0.66c-0.163 0.464 0 1.437-0.344 1.917s-1.224 0.838-1.567 1.269z"></path>
<path d="M20.168 9.982c-0.014-0.467 0.094-0.93 0.312-1.338-0.779-0.683-2.52-2.218-3.289-2.885h-3.111l5.809 5.12c0.306-0.198 0.242-0.491 0.279-0.898z"></path>
<path d="M10.211 16.168c-0.498 0.017-0.972 0.233-1.331 0.606-0.092 0.094-0.213 0.147-0.34 0.147s-0.248-0.053-0.34-0.147c-0.358-0.378-0.835-0.594-1.336-0.606-0.3 0.088-0.556 0.297-0.715 0.585s-0.208 0.631-0.138 0.957c0.301 1 1.779 1.92 2.529 2.298 0.744-0.378 2.228-1.298 2.529-2.298 0.071-0.327 0.021-0.671-0.139-0.959s-0.418-0.497-0.718-0.584z"></path>
</symbol>
<symbol id="icon-order" viewBox="0 0 31 32">
<path d="M7.482 12.16l12.998-6.751-4.518-2.209-13.402 6.553 4.922 2.407z"></path>
<path d="M24.507 7.040l-12.987 6.745 4.529 2.215 13.391-6.548-4.933-2.412z"></path>
<path d="M15.36 16.014l-4.345-2.177v4.784l-1.879-1.883h-1.879v-4.783l-4.697-2.353v12.786l12.8 6.414v-12.786z"></path>
<path d="M15.36 16.014v12.786l12.8-6.414v-12.786l-12.8 6.414z"></path>
</symbol>
<symbol id="icon-wishlist" viewBox="0 0 31 32">
<path d="M15.462 31.36c-3.623 0-7.105-1.396-9.834-3.782v2.888c0 0.494-0.4 0.894-0.894 0.894s-0.894-0.4-0.894-0.894v-5.109c0-0.826 1.027-1.206 1.565-0.579 2.546 2.973 6.212 4.678 10.058 4.678 7.395 0 13.47-6.197 13.47-13.815v-0.027c0-0.494 0.4-0.894 0.894-0.894s0.894 0.4 0.894 0.894v0.027c0 8.634-6.877 15.719-15.258 15.719z"></path>
<path d="M1.788 16.386c0 0.494-0.4 0.894-0.894 0.894s-0.894-0.4-0.894-0.894v-0.027c0-8.634 6.877-15.719 15.258-15.719 3.623 0 7.105 1.396 9.834 3.782v-2.888c0-0.494 0.4-0.894 0.894-0.894s0.894 0.4 0.894 0.894v5.109c0 0.826-1.027 1.206-1.565 0.579-2.546-2.973-6.212-4.678-10.058-4.678-7.395 0-13.47 6.197-13.47 13.815v0.027z"></path>
<path d="M15.781 12.909c0.136 0.491 0.859 0.392 0.859-0.117v-3.551c0-0.509-0.412-0.921-0.921-0.921h-0.718c-0.509 0-0.921 0.412-0.921 0.921v3.551c0 0.509 0.722 0.607 0.859 0.117 0.119-0.427 0.724-0.427 0.843 0z"></path>
<path d="M19.2 8.32c-0.707 0-1.28 0.573-1.28 1.28v3.845c0 0.979-1.073 1.585-1.926 1.105-0.39-0.219-0.878-0.219-1.267 0-0.853 0.48-1.926-0.126-1.926-1.105v-3.845c0-0.707-0.573-1.28-1.28-1.28h-2.56c-0.707 0-1.28 0.573-1.28 1.28v12.8c0 0.707 0.573 1.28 1.28 1.28h12.8c0.707 0 1.28-0.573 1.28-1.28v-12.8c0-0.707-0.573-1.28-1.28-1.28h-2.56zM19.627 18.688c0 0.53-0.43 0.96-0.96 0.96h-1.493c-0.53 0-0.96-0.43-0.96-0.96s0.43-0.96 0.96-0.96h1.493c0.53 0 0.96 0.43 0.96 0.96z"></path>
</symbol>
<symbol id="icon-contact" viewBox="0 0 31 32">
<path d="M11.424 7.583h16.767l-9.959 7.038-6.774-4.787c0.258-0.712 0.26-1.517-0.034-2.251zM7.039 11.668l2.444-1.534c0.725-0.455 0.966-1.427 0.541-2.185l-2.206-3.94c-0.226-0.404-0.569-0.664-1.011-0.767s-0.859-0.020-1.232 0.245l-4.024 2.856c-1.915 6.957 6.692 22.020 13.293 23.736l4.411-2.164c0.409-0.201 0.687-0.532 0.822-0.978s0.087-0.882-0.139-1.286l-2.206-3.94c-0.425-0.758-1.361-1.029-2.106-0.609l-2.511 1.415c-2.483-2.276-5.405-7.495-6.076-10.85zM29.409 8.489l-10.778 7.617c-0.252 0.177-0.576 0.164-0.811-0.010l-7.155-5.057c-0.136 0.126-0.284 0.241-0.445 0.342l-1.546 0.97c0.812 2.702 2.822 6.29 4.685 8.366l1.588-0.895c1.419-0.8 3.203-0.284 4.011 1.16l1.368 2.443h7.97c0.629 0 1.144-0.531 1.144-1.18v-13.483c0-0.094-0.011-0.186-0.032-0.274z"></path>
</symbol>
<symbol id="icon-password" viewBox="0 0 31 32">
<path d="M25.747 5.613c-3.217-3.217-8.451-3.217-11.667 0-2.197 2.197-2.96 5.435-2.009 8.373l-9.291 9.291c-0.141 0.141-0.22 0.331-0.22 0.53v4.243c0 0.414 0.335 0.75 0.75 0.75h4.243c0.199 0 0.39-0.079 0.53-0.22l1.061-1.061c0.162-0.162 0.241-0.389 0.215-0.617l-0.132-1.14 1.579-0.149c0.359-0.034 0.642-0.317 0.676-0.676l0.149-1.579 1.14 0.133c0.212 0.029 0.425-0.043 0.585-0.185s0.251-0.346 0.251-0.56v-1.396h1.371c0.199 0 0.39-0.079 0.53-0.22l1.923-1.898c2.937 0.952 6.119 0.246 8.316-1.952 3.217-3.217 3.217-8.451 0-11.668zM23.626 10.916c-0.877 0.877-2.304 0.877-3.182 0s-0.877-2.304 0-3.182c0.877-0.877 2.304-0.877 3.182 0s0.877 2.304 0 3.182z"></path>
</symbol>
</defs>
</svg>
